<svg width="67" height="48" viewBox="0 0 67 48" fill="none" xmlns="http://www.w3.org/2000/svg">
<path d="M33.5 8.3337V23.5M33.5 8.3337C33.078 6.59472 32.3514 5.10802 31.4149 4.06749C30.4784 3.02697 29.3755 2.4809 28.25 2.50051C27.4765 2.50051 26.7346 2.80779 26.1876 3.35476C25.6406 3.90173 25.3333 4.64358 25.3333 5.41711C25.3333 6.19064 25.6406 6.93248 26.1876 7.47945C26.7346 8.02642 27.4765 8.3337 28.25 8.3337M33.5 8.3337C33.922 6.59472 34.6486 5.10802 35.5851 4.06749C36.5216 3.02697 37.6245 2.4809 38.75 2.50051C39.5235 2.50051 40.2654 2.80779 40.8124 3.35476C41.3594 3.90173 41.6667 4.64358 41.6667 5.41711C41.6667 6.19064 41.3594 6.93248 40.8124 7.47945C40.2654 8.02642 39.5235 8.3337 38.75 8.3337M41.6667 13.0003V21.1667C41.6667 21.7855 41.4208 22.379 40.9832 22.8166C40.5457 23.2542 39.9522 23.5 39.3333 23.5H27.6667C27.0478 23.5 26.4543 23.2542 26.0168 22.8166C25.5792 22.379 25.3333 21.7855 25.3333 21.1667V13.0003M23 9.50034C23 9.19093 23.1229 8.89419 23.3417 8.6754C23.5605 8.45662 23.8572 8.3337 24.1667 8.3337H42.8333C43.1428 8.3337 43.4395 8.45662 43.6583 8.6754C43.8771 8.89419 44 9.19093 44 9.50034V11.8336C44 12.143 43.8771 12.4398 43.6583 12.6586C43.4395 12.8773 43.1428 13.0003 42.8333 13.0003H24.1667C23.8572 13.0003 23.5605 12.8773 23.3417 12.6586C23.1229 12.4398 23 12.143 23 11.8336V9.50034Z" stroke="#16191E" stroke-width="1.6" stroke-miterlimit="10"/>
<path d="M1.1851 35.532H5.4411C7.0931 35.532 8.6191 36.19 8.6191 38.024C8.6191 39.004 8.0451 39.844 7.1491 40.166C8.3811 40.446 9.0671 41.37 9.0671 42.686C9.0671 44.982 7.1911 45.5 5.2871 45.5H1.1851V35.532ZM2.4731 36.652V39.802H4.8391C5.9591 39.802 7.3031 39.718 7.3031 38.22C7.3031 36.722 6.1411 36.652 4.9651 36.652H2.4731ZM2.4731 40.838V44.394H5.1051C6.4351 44.394 7.7371 44.31 7.7371 42.56C7.7371 40.824 6.2111 40.838 4.8811 40.838H2.4731ZM16.7751 42.868C16.5651 44.59 15.4171 45.71 13.6251 45.71C11.3851 45.71 10.1951 44.184 10.1951 41.986C10.1951 39.578 11.5391 38.066 13.6671 38.066C15.4311 38.066 16.5371 38.99 16.7331 40.628H15.5011C15.2911 39.606 14.6611 39.06 13.6811 39.06C12.3091 39.06 11.4411 40.152 11.4411 41.888C11.4411 43.652 12.2531 44.716 13.5971 44.716C14.6751 44.716 15.3891 44.058 15.5711 42.868H16.7751ZM24.2526 43.218C23.8886 44.884 22.8106 45.738 21.1026 45.738C18.9746 45.738 17.7006 44.338 17.7006 41.986C17.7006 39.648 19.0586 38.066 21.0606 38.066C23.4406 38.066 24.3366 39.956 24.3366 42.042V42.21H18.9046L18.8906 42.294C18.8906 43.834 19.7446 44.758 21.1446 44.758C22.1806 44.758 22.7546 44.31 23.0906 43.218H24.2526ZM23.1046 41.244C22.9926 39.872 22.2226 39.046 21.0326 39.046C19.8706 39.046 19.0586 39.886 18.9046 41.244H23.1046ZM35.8926 44.548V45.472C35.6406 45.57 35.3466 45.612 35.0806 45.612C34.4086 45.612 34.0446 45.234 34.0306 44.548C33.3166 45.346 32.5326 45.696 31.4126 45.696C29.9846 45.696 29.1026 44.912 29.1026 43.652C29.1026 42.364 29.9566 41.608 31.6646 41.398C33.3866 41.188 33.9746 41.23 33.9746 40.25C33.9746 39.48 33.4006 39.06 32.3366 39.06C31.2306 39.06 30.6566 39.466 30.5446 40.53H29.3826C29.4246 38.99 30.5446 38.08 32.4066 38.08C33.3726 38.08 34.1986 38.332 34.6746 38.78C35.1786 39.27 35.1646 40.012 35.1646 40.656C35.1646 41.734 35.1086 42.798 35.1086 43.876C35.1086 44.408 35.2346 44.59 35.5986 44.59C35.7106 44.59 35.7666 44.576 35.8926 44.548ZM33.9746 41.748C33.5266 42.084 32.9106 42.112 32.3786 42.182C31.5106 42.294 30.3346 42.392 30.3346 43.554C30.3346 44.296 30.8806 44.758 31.7766 44.758C32.8966 44.758 33.9746 43.988 33.9746 43.064V41.748ZM43.4822 45.5H41.9702L39.3382 41.944L38.2042 43.05V45.5H37.0142V38.276H38.2042V41.72L41.5082 38.276H43.1042L40.1922 41.118L43.4822 45.5ZM50.0139 47.796V45.5H44.2739V38.276H45.4639V44.45H49.0199V38.276H50.2099V44.45H51.1479V47.796H50.0139ZM53.7843 45.5H52.2583V38.276H53.4483V44.17H53.4763L56.7243 38.276H58.2503V45.5H57.0603V39.606H57.0323L53.7843 45.5ZM61.5636 45.5H60.0376V38.276H61.2276V44.17H61.2556L64.5036 38.276H66.0296V45.5H64.8396V39.606H64.8116L61.5636 45.5Z" fill="#6B7076"/>
</svg>
