<svg width="72" height="49" viewBox="0 0 72 49" fill="none" xmlns="http://www.w3.org/2000/svg">
<line x1="28.8" y1="7.3" x2="28.8" y2="23.7" stroke="#16191E" stroke-width="1.6" stroke-miterlimit="10" stroke-linecap="round" stroke-linejoin="round"/>
<line x1="36.8" y1="3.3" x2="36.8" y2="23.7" stroke="#16191E" stroke-width="1.6" stroke-miterlimit="10" stroke-linecap="round" stroke-linejoin="round"/>
<line x1="44.8" y1="14.3" x2="44.8" y2="23.7" stroke="#16191E" stroke-width="1.6" stroke-miterlimit="10" stroke-linecap="round" stroke-linejoin="round"/>
<path d="M9.63882 41.734C9.41482 44.268 7.79082 45.738 5.32682 45.738C2.48482 45.738 0.70682 43.722 0.70682 40.53C0.70682 37.674 2.35882 35.308 5.42482 35.308C7.38482 35.308 9.35882 36.4 9.55482 38.528H8.23882C7.94482 37.226 6.88082 36.442 5.39682 36.442C3.03082 36.442 2.03682 38.416 2.03682 40.516C2.03682 43.05 3.31082 44.604 5.38282 44.604C7.07682 44.604 8.11282 43.596 8.32282 41.734H9.63882ZM12.2103 38.276V39.298C12.7703 38.402 13.5823 38.052 14.6463 38.052C16.6623 38.052 17.9363 39.508 17.9363 41.846C17.9363 44.184 16.6763 45.682 14.7023 45.682C13.6383 45.682 12.8963 45.332 12.2803 44.492V48.286H11.0903V38.276H12.2103ZM14.4643 39.046C13.0783 39.046 12.2383 40.11 12.2383 41.86C12.2383 43.61 13.1063 44.674 14.5063 44.674C15.8643 44.674 16.7043 43.596 16.7043 41.86C16.7043 40.11 15.8643 39.046 14.4643 39.046ZM25.7872 44.548V45.472C25.5352 45.57 25.2412 45.612 24.9752 45.612C24.3032 45.612 23.9392 45.234 23.9252 44.548C23.2112 45.346 22.4272 45.696 21.3072 45.696C19.8792 45.696 18.9972 44.912 18.9972 43.652C18.9972 42.364 19.8512 41.608 21.5592 41.398C23.2812 41.188 23.8692 41.23 23.8692 40.25C23.8692 39.48 23.2952 39.06 22.2312 39.06C21.1252 39.06 20.5512 39.466 20.4392 40.53H19.2772C19.3192 38.99 20.4392 38.08 22.3012 38.08C23.2672 38.08 24.0932 38.332 24.5692 38.78C25.0732 39.27 25.0592 40.012 25.0592 40.656C25.0592 41.734 25.0032 42.798 25.0032 43.876C25.0032 44.408 25.1292 44.59 25.4932 44.59C25.6052 44.59 25.6612 44.576 25.7872 44.548ZM23.8692 41.748C23.4212 42.084 22.8052 42.112 22.2732 42.182C21.4052 42.294 20.2292 42.392 20.2292 43.554C20.2292 44.296 20.7752 44.758 21.6712 44.758C22.7912 44.758 23.8692 43.988 23.8692 43.064V41.748ZM26.8807 45.5V38.276H30.2267C31.4867 38.276 32.7047 38.556 32.7047 40.026C32.7047 40.796 32.3127 41.272 31.6407 41.58V41.594C32.4807 41.762 33.0127 42.406 33.0127 43.372C33.0127 44.604 32.1027 45.5 30.8147 45.5H26.8807ZM30.1007 41.188C31.1227 41.188 31.4727 40.838 31.4727 40.222C31.4727 39.62 31.1507 39.298 30.1007 39.298H28.0427V41.188H30.1007ZM28.0427 42.196V44.478H30.5907C31.3467 44.478 31.7807 43.96 31.7807 43.274C31.7807 42.616 31.3607 42.196 30.3807 42.196H28.0427ZM35.6182 45.5H34.4282V38.276H35.6182V41.146H39.2302V38.276H40.4202V45.5H39.2302V42.196H35.6182V45.5ZM48.3815 43.218C48.0175 44.884 46.9395 45.738 45.2315 45.738C43.1035 45.738 41.8295 44.338 41.8295 41.986C41.8295 39.648 43.1875 38.066 45.1895 38.066C47.5695 38.066 48.4655 39.956 48.4655 42.042V42.21H43.0335L43.0195 42.294C43.0195 43.834 43.8735 44.758 45.2735 44.758C46.3095 44.758 46.8835 44.31 47.2195 43.218H48.3815ZM47.2335 41.244C47.1215 39.872 46.3515 39.046 45.1615 39.046C43.9995 39.046 43.1875 39.886 43.0335 41.244H47.2335ZM50.9171 45.5H49.7271V38.276H50.9171V41.146H54.5291V38.276H55.7191V45.5H54.5291V42.196H50.9171V45.5ZM59.0324 45.5H57.5064V38.276H58.6964V44.17H58.7244L61.9724 38.276H63.4984V45.5H62.3084V39.606H62.2804L59.0324 45.5ZM71.4596 43.218C71.0956 44.884 70.0176 45.738 68.3096 45.738C66.1816 45.738 64.9076 44.338 64.9076 41.986C64.9076 39.648 66.2656 38.066 68.2676 38.066C70.6476 38.066 71.5436 39.956 71.5436 42.042V42.21H66.1116L66.0976 42.294C66.0976 43.834 66.9516 44.758 68.3516 44.758C69.3876 44.758 69.9616 44.31 70.2976 43.218H71.4596ZM70.3116 41.244C70.1996 39.872 69.4296 39.046 68.2396 39.046C67.0776 39.046 66.2656 39.886 66.1116 41.244H70.3116Z" fill="#6B7076"/>
</svg>
