<svg width="176" height="98" viewBox="0 0 176 98" fill="none" xmlns="http://www.w3.org/2000/svg">
<path d="M9.802 15.696V34H6.63V21.416H2.106V19.232C4.056 19.232 6.89 18.868 7.41 15.696H9.802ZM27.8113 15.904V18.4C24.0153 22.196 21.3893 28.566 21.1813 34H17.9313C18.0613 29.06 21.2333 22.04 24.8733 18.634H15.4093V15.904H27.8113ZM40.2909 24.198C38.6529 23.626 37.6909 22.222 37.6909 20.402C37.6909 17.542 40.0569 15.566 43.4369 15.566C46.7129 15.566 49.0009 17.542 49.0009 20.324C49.0009 22.144 48.0909 23.496 46.4269 24.198C48.5329 24.926 49.7549 26.174 49.7549 28.592C49.7549 32.024 47.1809 34.312 43.3329 34.312C39.5369 34.312 36.9629 32.076 36.9629 28.748C36.9629 26.486 38.1849 24.848 40.2909 24.198ZM43.4109 17.958C41.6169 17.958 40.4729 18.972 40.4729 20.584C40.4729 22.17 41.6429 23.236 43.3849 23.236C45.1269 23.236 46.2449 22.222 46.2449 20.584C46.2449 18.972 45.1269 17.958 43.4109 17.958ZM43.3329 25.368C41.3309 25.368 39.9529 26.668 39.9529 28.592C39.9529 30.672 41.3049 31.972 43.4369 31.972C45.5169 31.972 46.7649 30.75 46.7649 28.67C46.7649 26.642 45.4129 25.368 43.3329 25.368ZM57.7541 15.644C61.9921 15.644 64.0981 18.79 64.0981 25.082C64.0981 31.166 61.9401 34.364 57.8581 34.364C53.6721 34.364 51.5141 31.218 51.5141 25.03C51.5141 18.894 53.6721 15.644 57.7541 15.644ZM57.7801 18.14C54.5821 18.14 54.5041 22.3 54.5041 25.212C54.5041 29.892 55.5181 31.894 57.8321 31.894C61.0821 31.894 61.1081 27.37 61.1081 25.082C61.1081 22.716 61.1341 18.14 57.7801 18.14ZM77.4274 15.904V18.478H70.1734L69.3414 23.158C70.2774 22.17 71.4214 21.858 72.7734 21.858C76.1534 21.858 78.4154 24.25 78.4154 27.812C78.4154 31.66 75.7374 34.338 71.9154 34.338C68.3274 34.338 65.9094 32.18 65.7534 28.826H68.6914C68.8474 30.698 70.1474 31.894 71.9934 31.894C74.1514 31.894 75.3734 30.464 75.3734 27.968C75.3734 25.55 74.0994 24.146 71.9414 24.146C70.5894 24.146 69.6794 24.614 68.8994 25.784L66.2994 25.706L68.0414 15.904H77.4274ZM84.8547 30.49V33.142C84.8547 35.638 84.1007 37.458 81.3187 38.082V36.522C82.4367 36.184 82.9567 35.378 83.0087 34H81.3187V30.49H84.8547ZM87.853 21.65C87.957 17.906 90.193 15.618 93.781 15.618C97.135 15.618 99.423 17.594 99.423 20.506C99.423 22.274 98.435 23.704 96.875 24.224C98.929 24.744 100.177 26.33 100.177 28.514C100.177 31.998 97.525 34.39 93.729 34.39C89.933 34.39 87.411 31.998 87.411 28.41V28.02H90.271C90.349 30.568 91.519 31.842 93.807 31.842C95.809 31.842 97.083 30.594 97.083 28.592C97.083 26.356 95.393 25.55 93.443 25.55C93.105 25.55 92.949 25.55 92.507 25.576V23.34H92.767C94.587 23.34 96.511 23.054 96.511 20.714C96.511 19.128 95.419 18.062 93.729 18.062C91.831 18.062 90.765 19.31 90.687 21.65H87.853ZM112.813 34H109.953V20.584H113.853L117.597 31.244H117.649L121.263 20.584H125.163V34H122.303V25.082H122.251L119.053 34H116.063L112.865 25.082H112.813V34ZM135.617 23.184H127.401V21.052L130.235 18.27C130.755 17.7673 131.163 17.3513 131.457 17.022C131.752 16.6753 131.96 16.3633 132.081 16.086C132.203 15.8087 132.263 15.5227 132.263 15.228C132.263 14.916 132.159 14.6733 131.951 14.5C131.761 14.3267 131.492 14.24 131.145 14.24C130.816 14.24 130.461 14.3267 130.079 14.5C129.715 14.6733 129.308 14.9593 128.857 15.358L127.297 13.434C127.852 12.9487 128.467 12.5587 129.143 12.264C129.837 11.952 130.643 11.796 131.561 11.796C132.688 11.796 133.589 12.0733 134.265 12.628C134.959 13.1653 135.305 13.9453 135.305 14.968C135.305 15.488 135.21 15.9733 135.019 16.424C134.829 16.8573 134.525 17.3167 134.109 17.802C133.693 18.27 133.147 18.816 132.471 19.44L131.145 20.636H135.617V23.184Z" fill="#117FE3"/>
<path d="M6.885 52.385H4.11V59H2.835V52.385H0.06V51.26H6.885V52.385ZM11.0297 51.035C13.3697 51.035 14.7347 52.52 14.7347 55.085C14.7347 57.71 13.3697 59.24 11.0147 59.24C8.64469 59.24 7.23469 57.71 7.23469 55.16C7.23469 52.61 8.68969 51.035 11.0297 51.035ZM10.9997 52.1C9.49969 52.1 8.55469 53.285 8.55469 55.13C8.55469 57.035 9.46969 58.16 11.0297 58.16C12.5297 58.16 13.4297 57.02 13.4297 55.115C13.4297 53.27 12.4997 52.1 10.9997 52.1ZM17.453 51.26V52.355C18.053 51.395 18.923 51.02 20.063 51.02C22.223 51.02 23.588 52.58 23.588 55.085C23.588 57.59 22.238 59.195 20.123 59.195C18.983 59.195 18.188 58.82 17.528 57.92V61.985H16.253V51.26H17.453ZM19.868 52.085C18.383 52.085 17.483 53.225 17.483 55.1C17.483 56.975 18.413 58.115 19.913 58.115C21.368 58.115 22.268 56.96 22.268 55.1C22.268 53.225 21.368 52.085 19.868 52.085ZM30.4846 52.385H26.4496V59H25.1746V51.26H30.4846V52.385ZM34.4672 51.035C36.8072 51.035 38.1722 52.52 38.1722 55.085C38.1722 57.71 36.8072 59.24 34.4522 59.24C32.0822 59.24 30.6722 57.71 30.6722 55.16C30.6722 52.61 32.1272 51.035 34.4672 51.035ZM34.4372 52.1C32.9372 52.1 31.9922 53.285 31.9922 55.13C31.9922 57.035 32.9072 58.16 34.4672 58.16C35.9672 58.16 36.8672 57.02 36.8672 55.115C36.8672 53.27 35.9372 52.1 34.4372 52.1ZM39.6605 59V51.26H43.2455C44.5955 51.26 45.9005 51.56 45.9005 53.135C45.9005 53.96 45.4805 54.47 44.7605 54.8V54.815C45.6605 54.995 46.2305 55.685 46.2305 56.72C46.2305 58.04 45.2555 59 43.8755 59H39.6605ZM43.1105 54.38C44.2055 54.38 44.5805 54.005 44.5805 53.345C44.5805 52.7 44.2355 52.355 43.1105 52.355H40.9055V54.38H43.1105ZM40.9055 55.46V57.905H43.6355C44.4455 57.905 44.9105 57.35 44.9105 56.615C44.9105 55.91 44.4605 55.46 43.4105 55.46H40.9055ZM55.1271 51.26H56.4021V59H55.1271V51.26ZM53.8971 56.585C53.8971 58.04 52.9521 59 51.4371 59H47.7021V51.26H48.9771V54.215H51.3771C52.8921 54.215 53.8971 55.115 53.8971 56.585ZM50.9721 55.31H48.9771V57.875H50.9721C52.0221 57.875 52.5771 57.41 52.5771 56.585C52.5771 55.76 52.0371 55.31 50.9721 55.31ZM64.6686 51.26L61.9686 54.83L64.9836 59H63.3486L61.1736 55.82L59.0286 59H57.4836L60.3936 54.92L57.7086 51.26H59.3286L61.2036 53.915L63.1236 51.26H64.6686ZM71.8821 59H70.2471V51.26H71.5221V57.575H71.5521L75.0321 51.26H76.6671V59H75.3921V52.685H75.3621L71.8821 59ZM89.4169 56.18C89.1919 58.025 87.9619 59.225 86.0419 59.225C83.6419 59.225 82.3669 57.59 82.3669 55.235C82.3669 52.655 83.8069 51.035 86.0869 51.035C87.9769 51.035 89.1619 52.025 89.3719 53.78H88.0519C87.8269 52.685 87.1519 52.1 86.1019 52.1C84.6319 52.1 83.7019 53.27 83.7019 55.13C83.7019 57.02 84.5719 58.16 86.0119 58.16C87.1669 58.16 87.9319 57.455 88.1269 56.18H89.4169ZM97.7435 59H96.1235L93.3035 55.19L92.0885 56.375V59H90.8135V51.26H92.0885V54.95L95.6285 51.26H97.3385L94.2185 54.305L97.7435 59ZM105.042 51.26V59H103.767V52.385H101.007L100.902 55.805C100.827 58.34 99.8368 59.165 98.7568 59.165C98.3818 59.165 98.0068 59.075 97.8418 59V57.965C98.0068 58.055 98.3518 58.07 98.5168 58.07C99.0268 58.07 99.5968 57.62 99.6418 55.94L99.7768 51.26H105.042ZM113.782 57.98V58.97C113.512 59.075 113.197 59.12 112.912 59.12C112.192 59.12 111.802 58.715 111.787 57.98C111.022 58.835 110.182 59.21 108.982 59.21C107.452 59.21 106.507 58.37 106.507 57.02C106.507 55.64 107.422 54.83 109.252 54.605C111.097 54.38 111.727 54.425 111.727 53.375C111.727 52.55 111.112 52.1 109.972 52.1C108.787 52.1 108.172 52.535 108.052 53.675H106.807C106.852 52.025 108.052 51.05 110.047 51.05C111.082 51.05 111.967 51.32 112.477 51.8C113.017 52.325 113.002 53.12 113.002 53.81C113.002 54.965 112.942 56.105 112.942 57.26C112.942 57.83 113.077 58.025 113.467 58.025C113.587 58.025 113.647 58.01 113.782 57.98ZM111.727 54.98C111.247 55.34 110.587 55.37 110.017 55.445C109.087 55.565 107.827 55.67 107.827 56.915C107.827 57.71 108.412 58.205 109.372 58.205C110.572 58.205 111.727 57.38 111.727 56.39V54.98ZM122.483 61.46H121.268V59H115.358V61.46H114.143V57.875H114.983C115.433 57.02 115.958 54.86 115.958 52.91V51.26H121.478V57.875H122.483V61.46ZM120.203 57.875V52.385H117.203V53.03C117.203 54.965 116.723 57.05 116.303 57.875H120.203ZM130.257 56.18C130.032 58.025 128.802 59.225 126.882 59.225C124.482 59.225 123.207 57.59 123.207 55.235C123.207 52.655 124.647 51.035 126.927 51.035C128.817 51.035 130.002 52.025 130.212 53.78H128.892C128.667 52.685 127.992 52.1 126.942 52.1C125.472 52.1 124.542 53.27 124.542 55.13C124.542 57.02 125.412 58.16 126.852 58.16C128.007 58.16 128.772 57.455 128.967 56.18H130.257ZM138.583 59H136.963L134.143 55.19L132.928 56.375V59H131.653V51.26H132.928V54.95L136.468 51.26H138.178L135.058 54.305L138.583 59ZM141.067 59H139.432V51.26H140.707V57.575H140.737L144.217 51.26H145.852V59H144.577V52.685H144.547L141.067 59ZM154.127 51.26L151.427 54.83L154.442 59H152.807L150.632 55.82L148.487 59H146.942L149.852 54.92L147.167 51.26H148.787L150.662 53.915L152.582 51.26H154.127ZM2.235 77H0.96V69.26H7.38V77H6.105V70.385H2.235V77ZM12.685 69.035C15.025 69.035 16.39 70.52 16.39 73.085C16.39 75.71 15.025 77.24 12.67 77.24C10.3 77.24 8.88996 75.71 8.88996 73.16C8.88996 70.61 10.345 69.035 12.685 69.035ZM12.655 70.1C11.155 70.1 10.21 71.285 10.21 73.13C10.21 75.035 11.125 76.16 12.685 76.16C14.185 76.16 15.085 75.02 15.085 73.115C15.085 71.27 14.155 70.1 12.655 70.1ZM26.2932 77H25.0182V70.895H24.9732L22.6782 77H21.5082L19.2132 70.895H19.1682V77H17.8932V69.26H19.7232L22.0782 75.53H22.1082L24.4632 69.26H26.2932V77ZM34.7918 74.555C34.4018 76.34 33.2468 77.255 31.4168 77.255C29.1368 77.255 27.7718 75.755 27.7718 73.235C27.7718 70.73 29.2268 69.035 31.3718 69.035C33.9218 69.035 34.8818 71.06 34.8818 73.295V73.475H29.0618L29.0468 73.565C29.0468 75.215 29.9618 76.205 31.4618 76.205C32.5718 76.205 33.1868 75.725 33.5468 74.555H34.7918ZM33.5618 72.44C33.4418 70.97 32.6168 70.085 31.3418 70.085C30.0968 70.085 29.2268 70.985 29.0618 72.44H33.5618ZM36.2334 77V69.26H37.5084V75.875H40.7034V69.26H41.9784V75.875H45.1734V69.26H46.4484V75.875H47.4534V79.46H46.2384V77H36.2334ZM55.2117 74.555C54.8217 76.34 53.6667 77.255 51.8367 77.255C49.5567 77.255 48.1917 75.755 48.1917 73.235C48.1917 70.73 49.6467 69.035 51.7917 69.035C54.3417 69.035 55.3017 71.06 55.3017 73.295V73.475H49.4817L49.4667 73.565C49.4667 75.215 50.3817 76.205 51.8817 76.205C52.9917 76.205 53.6067 75.725 53.9667 74.555H55.2117ZM53.9817 72.44C53.8617 70.97 53.0367 70.085 51.7617 70.085C50.5167 70.085 49.6467 70.985 49.4817 72.44H53.9817ZM57.9284 77H56.6534V69.26H57.9284V72.335H61.7984V69.26H63.0734V77H61.7984V73.46H57.9284V77ZM66.6233 77H64.9883V69.26H66.2633V75.575H66.2933L69.7733 69.26H71.4083V77H70.1333V70.685H70.1033L66.6233 77ZM78.7983 66.32C78.6033 67.52 77.8533 68.39 76.5483 68.39C75.3033 68.39 74.4183 67.52 74.2683 66.32H75.0333C75.2433 67.04 75.7683 67.49 76.5333 67.49C77.3133 67.49 77.7933 67.04 78.0333 66.32H78.7983ZM74.9583 77H73.3233V69.26H74.5983V75.575H74.6283L78.1083 69.26H79.7433V77H78.4683V70.685H78.4383L74.9583 77Z" fill="#44474F"/>
</svg>
