<svg width="89" height="40" viewBox="0 0 89 40" fill="none" xmlns="http://www.w3.org/2000/svg">
<rect x="0.5" y="0.5" width="39" height="39" rx="5.5" stroke="#F3F4F5"/>
<path d="M20 17C20 17 21.0373 13.5 24.322 13.5C26.8807 13.5 28.5 15.5066 28.5 17.8838C28.5 21.1715 25.1265 23.3485 20 27.5C14.8735 23.3485 11.5 21.1715 11.5 17.8838C11.5 15.5066 13.1193 13.5 15.678 13.5C18.9627 13.5 20 17 20 17Z" stroke="#16191E" stroke-width="1.3" stroke-miterlimit="10" stroke-linecap="round" stroke-linejoin="round"/>
<rect x="49.5" y="0.5" width="39" height="39" rx="5.5" stroke="#F3F4F5"/>
<line x1="62.8" y1="14.8" x2="62.8" y2="27.2" stroke="#16191E" stroke-width="1.6" stroke-miterlimit="10" stroke-linecap="round" stroke-linejoin="round"/>
<line x1="69.8" y1="10.8" x2="69.8" y2="27.2" stroke="#16191E" stroke-width="1.6" stroke-miterlimit="10" stroke-linecap="round" stroke-linejoin="round"/>
<line x1="76.8" y1="19.8" x2="76.8" y2="27.2" stroke="#16191E" stroke-width="1.6" stroke-miterlimit="10" stroke-linecap="round" stroke-linejoin="round"/>
</svg>
