<svg width="143" height="98" viewBox="0 0 143 98" fill="none" xmlns="http://www.w3.org/2000/svg">
<path d="M12.735 15.904V18.478H5.48101L4.64901 23.158C5.58501 22.17 6.72901 21.858 8.08101 21.858C11.461 21.858 13.723 24.25 13.723 27.812C13.723 31.66 11.045 34.338 7.22301 34.338C3.63501 34.338 1.21701 32.18 1.06101 28.826H3.99901C4.15501 30.698 5.45501 31.894 7.30101 31.894C9.45901 31.894 10.681 30.464 10.681 27.968C10.681 25.55 9.40701 24.146 7.24901 24.146C5.89701 24.146 4.98701 24.614 4.20701 25.784L1.60701 25.706L3.34901 15.904H12.735ZM21.9563 15.644C26.1943 15.644 28.3003 18.79 28.3003 25.082C28.3003 31.166 26.1423 34.364 22.0603 34.364C17.8743 34.364 15.7163 31.218 15.7163 25.03C15.7163 18.894 17.8743 15.644 21.9563 15.644ZM21.9823 18.14C18.7843 18.14 18.7063 22.3 18.7063 25.212C18.7063 29.892 19.7203 31.894 22.0343 31.894C25.2843 31.894 25.3103 27.37 25.3103 25.082C25.3103 22.716 25.3363 18.14 21.9823 18.14ZM43.6399 15.644C47.8779 15.644 49.9839 18.79 49.9839 25.082C49.9839 31.166 47.8259 34.364 43.7439 34.364C39.5579 34.364 37.3999 31.218 37.3999 25.03C37.3999 18.894 39.5579 15.644 43.6399 15.644ZM43.6659 18.14C40.4679 18.14 40.3899 22.3 40.3899 25.212C40.3899 29.892 41.4039 31.894 43.7179 31.894C46.9679 31.894 46.9939 27.37 46.9939 25.082C46.9939 22.716 47.0199 18.14 43.6659 18.14ZM58.0871 15.644C62.3251 15.644 64.4311 18.79 64.4311 25.082C64.4311 31.166 62.2731 34.364 58.1911 34.364C54.0051 34.364 51.8471 31.218 51.8471 25.03C51.8471 18.894 54.0051 15.644 58.0871 15.644ZM58.1131 18.14C54.9151 18.14 54.8371 22.3 54.8371 25.212C54.8371 29.892 55.8511 31.894 58.1651 31.894C61.4151 31.894 61.4411 27.37 61.4411 25.082C61.4411 22.716 61.4671 18.14 58.1131 18.14ZM72.5344 15.644C76.7724 15.644 78.8784 18.79 78.8784 25.082C78.8784 31.166 76.7204 34.364 72.6384 34.364C68.4524 34.364 66.2944 31.218 66.2944 25.03C66.2944 18.894 68.4524 15.644 72.5344 15.644ZM72.5604 18.14C69.3624 18.14 69.2844 22.3 69.2844 25.212C69.2844 29.892 70.2984 31.894 72.6124 31.894C75.8624 31.894 75.8884 27.37 75.8884 25.082C75.8884 22.716 75.9144 18.14 72.5604 18.14ZM86.2797 34V28.54H80.8977V26.07H86.2797V20.61H88.9317V26.07H94.3397V28.54H88.9317V34H86.2797Z" fill="#117FE3"/>
<path d="M2.56801 59H1.29301V51.26H2.56801V54.335H6.43801V51.26H7.71301V59H6.43801V55.46H2.56801V59ZM16.483 57.98V58.97C16.213 59.075 15.898 59.12 15.613 59.12C14.893 59.12 14.503 58.715 14.488 57.98C13.723 58.835 12.883 59.21 11.683 59.21C10.153 59.21 9.20797 58.37 9.20797 57.02C9.20797 55.64 10.123 54.83 11.953 54.605C13.798 54.38 14.428 54.425 14.428 53.375C14.428 52.55 13.813 52.1 12.673 52.1C11.488 52.1 10.873 52.535 10.753 53.675H9.50797C9.55297 52.025 10.753 51.05 12.748 51.05C13.783 51.05 14.668 51.32 15.178 51.8C15.718 52.325 15.703 53.12 15.703 53.81C15.703 54.965 15.643 56.105 15.643 57.26C15.643 57.83 15.778 58.025 16.168 58.025C16.288 58.025 16.348 58.01 16.483 57.98ZM14.428 54.98C13.948 55.34 13.288 55.37 12.718 55.445C11.788 55.565 10.528 55.67 10.528 56.915C10.528 57.71 11.113 58.205 12.073 58.205C13.273 58.205 14.428 57.38 14.428 56.39V54.98ZM19.3196 59H17.6846V51.26H18.9596V57.575H18.9896L22.4696 51.26H24.1046V59H22.8296V52.685H22.7996L19.3196 59ZM34.4046 59H33.1296V52.895H33.0846L30.7896 59H29.6196L27.3246 52.895H27.2796V59H26.0046V51.26H27.8346L30.1896 57.53H30.2196L32.5746 51.26H34.4046V59ZM42.9031 56.555C42.5131 58.34 41.3581 59.255 39.5281 59.255C37.2481 59.255 35.8831 57.755 35.8831 55.235C35.8831 52.73 37.3381 51.035 39.4831 51.035C42.0331 51.035 42.9931 53.06 42.9931 55.295V55.475H37.1731L37.1581 55.565C37.1581 57.215 38.0731 58.205 39.5731 58.205C40.6831 58.205 41.2981 57.725 41.6581 56.555H42.9031ZM41.6731 54.44C41.5531 52.97 40.7281 52.085 39.4531 52.085C38.2081 52.085 37.3381 52.985 37.1731 54.44H41.6731ZM45.6198 59H44.3448V51.26H45.6198V54.335H49.4898V51.26H50.7648V59H49.4898V55.46H45.6198V59ZM56.0697 51.035C58.4097 51.035 59.7747 52.52 59.7747 55.085C59.7747 57.71 58.4097 59.24 56.0547 59.24C53.6847 59.24 52.2747 57.71 52.2747 55.16C52.2747 52.61 53.7297 51.035 56.0697 51.035ZM56.0397 52.1C54.5397 52.1 53.5947 53.285 53.5947 55.13C53.5947 57.035 54.5097 58.16 56.0697 58.16C57.5697 58.16 58.4697 57.02 58.4697 55.115C58.4697 53.27 57.5397 52.1 56.0397 52.1ZM61.263 59V51.26H64.848C66.198 51.26 67.503 51.56 67.503 53.135C67.503 53.96 67.083 54.47 66.363 54.8V54.815C67.263 54.995 67.833 55.685 67.833 56.72C67.833 58.04 66.858 59 65.478 59H61.263ZM64.713 54.38C65.808 54.38 66.183 54.005 66.183 53.345C66.183 52.7 65.838 52.355 64.713 52.355H62.508V54.38H64.713ZM62.508 55.46V57.905H65.238C66.048 57.905 66.513 57.35 66.513 56.615C66.513 55.91 66.063 55.46 65.013 55.46H62.508ZM76.2046 57.98V58.97C75.9346 59.075 75.6196 59.12 75.3346 59.12C74.6146 59.12 74.2246 58.715 74.2096 57.98C73.4446 58.835 72.6046 59.21 71.4046 59.21C69.8746 59.21 68.9296 58.37 68.9296 57.02C68.9296 55.64 69.8446 54.83 71.6746 54.605C73.5196 54.38 74.1496 54.425 74.1496 53.375C74.1496 52.55 73.5346 52.1 72.3946 52.1C71.2096 52.1 70.5946 52.535 70.4746 53.675H69.2296C69.2746 52.025 70.4746 51.05 72.4696 51.05C73.5046 51.05 74.3896 51.32 74.8996 51.8C75.4396 52.325 75.4246 53.12 75.4246 53.81C75.4246 54.965 75.3646 56.105 75.3646 57.26C75.3646 57.83 75.4996 58.025 75.8896 58.025C76.0096 58.025 76.0696 58.01 76.2046 57.98ZM74.1496 54.98C73.6696 55.34 73.0096 55.37 72.4396 55.445C71.5096 55.565 70.2496 55.67 70.2496 56.915C70.2496 57.71 70.8346 58.205 71.7946 58.205C72.9946 58.205 74.1496 57.38 74.1496 56.39V54.98ZM78.6813 59H77.4063V51.26H78.6813V54.335H82.5513V51.26H83.8263V59H82.5513V55.46H78.6813V59ZM87.3763 59H85.7413V51.26H87.0163V57.575H87.0463L90.5263 51.26H92.1613V59H90.8863V52.685H90.8563L87.3763 59ZM99.5512 48.32C99.3562 49.52 98.6062 50.39 97.3012 50.39C96.0562 50.39 95.1712 49.52 95.0212 48.32H95.7862C95.9962 49.04 96.5212 49.49 97.2862 49.49C98.0662 49.49 98.5462 49.04 98.7862 48.32H99.5512ZM95.7112 59H94.0762V51.26H95.3512V57.575H95.3812L98.8612 51.26H100.496V59H99.2212V52.685H99.1912L95.7112 59ZM7.21801 70.385H4.44301V77H3.16801V70.385H0.393008V69.26H7.21801V70.385ZM11.3627 69.035C13.7027 69.035 15.0677 70.52 15.0677 73.085C15.0677 75.71 13.7027 77.24 11.3477 77.24C8.9777 77.24 7.5677 75.71 7.5677 73.16C7.5677 70.61 9.0227 69.035 11.3627 69.035ZM11.3327 70.1C9.8327 70.1 8.8877 71.285 8.8877 73.13C8.8877 75.035 9.8027 76.16 11.3627 76.16C12.8627 76.16 13.7627 75.02 13.7627 73.115C13.7627 71.27 12.8327 70.1 11.3327 70.1ZM16.556 77V69.26H20.141C21.491 69.26 22.796 69.56 22.796 71.135C22.796 71.96 22.376 72.47 21.656 72.8V72.815C22.556 72.995 23.126 73.685 23.126 74.72C23.126 76.04 22.151 77 20.771 77H16.556ZM20.006 72.38C21.101 72.38 21.476 72.005 21.476 71.345C21.476 70.7 21.131 70.355 20.006 70.355H17.801V72.38H20.006ZM17.801 73.46V75.905H20.531C21.341 75.905 21.806 75.35 21.806 74.615C21.806 73.91 21.356 73.46 20.306 73.46H17.801ZM31.4976 75.98V76.97C31.2276 77.075 30.9126 77.12 30.6276 77.12C29.9076 77.12 29.5176 76.715 29.5026 75.98C28.7376 76.835 27.8976 77.21 26.6976 77.21C25.1676 77.21 24.2226 76.37 24.2226 75.02C24.2226 73.64 25.1376 72.83 26.9676 72.605C28.8126 72.38 29.4426 72.425 29.4426 71.375C29.4426 70.55 28.8276 70.1 27.6876 70.1C26.5026 70.1 25.8876 70.535 25.7676 71.675H24.5226C24.5676 70.025 25.7676 69.05 27.7626 69.05C28.7976 69.05 29.6826 69.32 30.1926 69.8C30.7326 70.325 30.7176 71.12 30.7176 71.81C30.7176 72.965 30.6576 74.105 30.6576 75.26C30.6576 75.83 30.7926 76.025 31.1826 76.025C31.3026 76.025 31.3626 76.01 31.4976 75.98ZM29.4426 72.98C28.9626 73.34 28.3026 73.37 27.7326 73.445C26.8026 73.565 25.5426 73.67 25.5426 74.915C25.5426 75.71 26.1276 76.205 27.0876 76.205C28.2876 76.205 29.4426 75.38 29.4426 74.39V72.98ZM33.8993 69.26V70.355C34.4993 69.395 35.3693 69.02 36.5093 69.02C38.6693 69.02 40.0343 70.58 40.0343 73.085C40.0343 75.59 38.6843 77.195 36.5693 77.195C35.4293 77.195 34.6343 76.82 33.9743 75.92V79.985H32.6993V69.26H33.8993ZM36.3143 70.085C34.8293 70.085 33.9293 71.225 33.9293 73.1C33.9293 74.975 34.8593 76.115 36.3593 76.115C37.8143 76.115 38.7143 74.96 38.7143 73.1C38.7143 71.225 37.8143 70.085 36.3143 70.085ZM48.4459 75.98V76.97C48.1759 77.075 47.8609 77.12 47.5759 77.12C46.8559 77.12 46.4659 76.715 46.4509 75.98C45.6859 76.835 44.8459 77.21 43.6459 77.21C42.1159 77.21 41.1709 76.37 41.1709 75.02C41.1709 73.64 42.0859 72.83 43.9159 72.605C45.7609 72.38 46.3909 72.425 46.3909 71.375C46.3909 70.55 45.7759 70.1 44.6359 70.1C43.4509 70.1 42.8359 70.535 42.7159 71.675H41.4709C41.5159 70.025 42.7159 69.05 44.7109 69.05C45.7459 69.05 46.6309 69.32 47.1409 69.8C47.6809 70.325 47.6659 71.12 47.6659 71.81C47.6659 72.965 47.6059 74.105 47.6059 75.26C47.6059 75.83 47.7409 76.025 48.1309 76.025C48.2509 76.025 48.3109 76.01 48.4459 75.98ZM46.3909 72.98C45.9109 73.34 45.2509 73.37 44.6809 73.445C43.7509 73.565 42.4909 73.67 42.4909 74.915C42.4909 75.71 43.0759 76.205 44.0359 76.205C45.2359 76.205 46.3909 75.38 46.3909 74.39V72.98Z" fill="#44474F"/>
</svg>
