<svg width="122" height="98" viewBox="0 0 122 98" fill="none" xmlns="http://www.w3.org/2000/svg">
<path d="M13.693 31.374V34H1.26499C1.39499 29.84 3.60499 28.202 6.69899 26.122C8.51899 24.9 10.703 23.756 10.703 21.234C10.703 19.336 9.58499 18.166 7.76499 18.166C5.08699 18.166 4.67099 20.35 4.61899 22.482H1.73299V22.014C1.73299 18.114 4.09899 15.618 7.84299 15.618C11.379 15.618 13.719 17.776 13.719 21.078C13.719 24.51 11.275 26.018 8.72699 27.708C7.40099 28.566 5.45099 29.866 4.82699 31.374H13.693ZM34.7526 15.904V18.478H27.4986L26.6666 23.158C27.6026 22.17 28.7466 21.858 30.0986 21.858C33.4786 21.858 35.7406 24.25 35.7406 27.812C35.7406 31.66 33.0626 34.338 29.2406 34.338C25.6526 34.338 23.2346 32.18 23.0786 28.826H26.0166C26.1726 30.698 27.4726 31.894 29.3186 31.894C31.4766 31.894 32.6986 30.464 32.6986 27.968C32.6986 25.55 31.4246 24.146 29.2666 24.146C27.9146 24.146 27.0046 24.614 26.2246 25.784L23.6246 25.706L25.3666 15.904H34.7526ZM43.9739 15.644C48.2119 15.644 50.3179 18.79 50.3179 25.082C50.3179 31.166 48.1599 34.364 44.0779 34.364C39.8919 34.364 37.7339 31.218 37.7339 25.03C37.7339 18.894 39.8919 15.644 43.9739 15.644ZM43.9999 18.14C40.8019 18.14 40.7239 22.3 40.7239 25.212C40.7239 29.892 41.7379 31.894 44.0519 31.894C47.3019 31.894 47.3279 27.37 47.3279 25.082C47.3279 22.716 47.3539 18.14 43.9999 18.14ZM58.4211 15.644C62.6591 15.644 64.7651 18.79 64.7651 25.082C64.7651 31.166 62.6071 34.364 58.5251 34.364C54.3391 34.364 52.1811 31.218 52.1811 25.03C52.1811 18.894 54.3391 15.644 58.4211 15.644ZM58.4471 18.14C55.2491 18.14 55.1711 22.3 55.1711 25.212C55.1711 29.892 56.1851 31.894 58.4991 31.894C61.7491 31.894 61.7751 27.37 61.7751 25.082C61.7751 22.716 61.8011 18.14 58.4471 18.14ZM72.1664 34V28.54H66.7844V26.07H72.1664V20.61H74.8184V26.07H80.2264V28.54H74.8184V34H72.1664Z" fill="#117FE3"/>
<path d="M2.90199 59H1.62699V51.26H8.04699V59H6.77199V52.385H2.90199V59ZM13.352 51.035C15.692 51.035 17.057 52.52 17.057 55.085C17.057 57.71 15.692 59.24 13.337 59.24C10.967 59.24 9.55695 57.71 9.55695 55.16C9.55695 52.61 11.012 51.035 13.352 51.035ZM13.322 52.1C11.822 52.1 10.877 53.285 10.877 55.13C10.877 57.035 11.792 58.16 13.352 58.16C14.852 58.16 15.752 57.02 15.752 55.115C15.752 53.27 14.822 52.1 13.322 52.1ZM25.2352 56.18C25.0102 58.025 23.7802 59.225 21.8602 59.225C19.4602 59.225 18.1852 57.59 18.1852 55.235C18.1852 52.655 19.6252 51.035 21.9052 51.035C23.7952 51.035 24.9802 52.025 25.1902 53.78H23.8702C23.6452 52.685 22.9702 52.1 21.9202 52.1C20.4502 52.1 19.5202 53.27 19.5202 55.13C19.5202 57.02 20.3902 58.16 21.8302 58.16C22.9852 58.16 23.7502 57.455 23.9452 56.18H25.2352ZM32.5569 52.385H29.7819V59H28.5069V52.385H25.7319V51.26H32.5569V52.385ZM36.7016 51.035C39.0416 51.035 40.4066 52.52 40.4066 55.085C40.4066 57.71 39.0416 59.24 36.6866 59.24C34.3166 59.24 32.9066 57.71 32.9066 55.16C32.9066 52.61 34.3616 51.035 36.7016 51.035ZM36.6716 52.1C35.1716 52.1 34.2266 53.285 34.2266 55.13C34.2266 57.035 35.1416 58.16 36.7016 58.16C38.2016 58.16 39.1016 57.02 39.1016 55.115C39.1016 53.27 38.1716 52.1 36.6716 52.1ZM48.0448 59H46.7698V55.835H45.0748L42.6298 59H40.9348L43.6048 55.79C42.5098 55.625 41.6848 54.815 41.6848 53.54C41.6848 52.085 42.6148 51.26 44.1148 51.26H48.0448V59ZM46.7698 52.385H44.5198C43.4698 52.385 42.9898 52.76 42.9898 53.54C42.9898 54.335 43.4548 54.71 44.5198 54.71H46.7698V52.385ZM51.2565 59H49.9815V51.26H51.2565V54.335H55.1265V51.26H56.4015V59H55.1265V55.46H51.2565V59ZM59.5914 59H58.3164V51.26H59.5914V54.335H63.4614V51.26H64.7364V59H63.4614V55.46H59.5914V59ZM74.0314 51.26H75.3064V59H74.0314V51.26ZM72.8014 56.585C72.8014 58.04 71.8564 59 70.3414 59H66.6064V51.26H67.8814V54.215H70.2814C71.7964 54.215 72.8014 55.115 72.8014 56.585ZM69.8764 55.31H67.8814V57.875H69.8764C70.9264 57.875 71.4814 57.41 71.4814 56.585C71.4814 55.76 70.9414 55.31 69.8764 55.31ZM83.5729 51.26L80.8729 54.83L83.8879 59H82.2529L80.0779 55.82L77.9329 59H76.3879L79.2979 54.92L76.6129 51.26H78.2329L80.1079 53.915L82.0279 51.26H83.5729ZM8.55699 77H6.93699L4.11699 73.19L2.90199 74.375V77H1.62699V69.26H2.90199V72.95L6.44199 69.26H8.15199L5.03199 72.305L8.55699 77ZM15.8553 69.26V77H14.5803V70.385H11.8203L11.7153 73.805C11.6403 76.34 10.6503 77.165 9.57031 77.165C9.19531 77.165 8.82031 77.075 8.65531 77V75.965C8.82031 76.055 9.16531 76.07 9.33031 76.07C9.84031 76.07 10.4103 75.62 10.4553 73.94L10.5903 69.26H15.8553ZM19.3753 77H17.7403V69.26H19.0153V75.575H19.0453L22.5253 69.26H24.1603V77H22.8853V70.685H22.8553L19.3753 77ZM32.6902 74.555C32.3002 76.34 31.1452 77.255 29.3152 77.255C27.0352 77.255 25.6702 75.755 25.6702 73.235C25.6702 70.73 27.1252 69.035 29.2702 69.035C31.8202 69.035 32.7802 71.06 32.7802 73.295V73.475H26.9602L26.9452 73.565C26.9452 75.215 27.8602 76.205 29.3602 76.205C30.4702 76.205 31.0852 75.725 31.4452 74.555H32.6902ZM31.4602 72.44C31.3402 70.97 30.5152 70.085 29.2402 70.085C27.9952 70.085 27.1252 70.985 26.9602 72.44H31.4602ZM35.4069 77H34.1319V69.26H35.4069V72.335H39.2769V69.26H40.5519V77H39.2769V73.46H35.4069V77ZM48.3918 70.385H45.6168V77H44.3418V70.385H41.5668V69.26H48.3918V70.385ZM52.5365 69.035C54.8765 69.035 56.2415 70.52 56.2415 73.085C56.2415 75.71 54.8765 77.24 52.5215 77.24C50.1515 77.24 48.7415 75.71 48.7415 73.16C48.7415 70.61 50.1965 69.035 52.5365 69.035ZM52.5065 70.1C51.0065 70.1 50.0615 71.285 50.0615 73.13C50.0615 75.035 50.9765 76.16 52.5365 76.16C54.0365 76.16 54.9365 75.02 54.9365 73.115C54.9365 71.27 54.0065 70.1 52.5065 70.1ZM57.7298 77V69.26H61.3148C62.6648 69.26 63.9698 69.56 63.9698 71.135C63.9698 71.96 63.5498 72.47 62.8298 72.8V72.815C63.7298 72.995 64.2998 73.685 64.2998 74.72C64.2998 76.04 63.3248 77 61.9448 77H57.7298ZM61.1798 72.38C62.2748 72.38 62.6498 72.005 62.6498 71.345C62.6498 70.7 62.3048 70.355 61.1798 70.355H58.9748V72.38H61.1798ZM58.9748 73.46V75.905H61.7048C62.5148 75.905 62.9798 75.35 62.9798 74.615C62.9798 73.91 62.5298 73.46 61.4798 73.46H58.9748Z" fill="#44474F"/>
</svg>
