<svg width="117" height="98" viewBox="0 0 117 98" fill="none" xmlns="http://www.w3.org/2000/svg">
<path d="M13.572 27.188V29.684H11.258V34H8.398L8.372 29.684H0.65V26.746L8.45 15.644H11.258V27.188H13.572ZM8.424 27.188V19.31L3.094 27.188H8.424ZM28.0193 27.188V29.684H25.7053V34H22.8453L22.8193 29.684H15.0973V26.746L22.8973 15.644H25.7053V27.188H28.0193ZM22.8713 27.188V19.31L17.5413 27.188H22.8713ZM36.0705 15.644C40.3085 15.644 42.4145 18.79 42.4145 25.082C42.4145 31.166 40.2565 34.364 36.1745 34.364C31.9885 34.364 29.8305 31.218 29.8305 25.03C29.8305 18.894 31.9885 15.644 36.0705 15.644ZM36.0965 18.14C32.8985 18.14 32.8205 22.3 32.8205 25.212C32.8205 29.892 33.8345 31.894 36.1485 31.894C39.3985 31.894 39.4245 27.37 39.4245 25.082C39.4245 22.716 39.4505 18.14 36.0965 18.14Z" fill="#117FE3"/>
<path d="M4.35 51.035C6.69 51.035 8.055 52.52 8.055 55.085C8.055 57.71 6.69 59.24 4.335 59.24C1.965 59.24 0.555 57.71 0.555 55.16C0.555 52.61 2.01 51.035 4.35 51.035ZM4.32 52.1C2.82 52.1 1.875 53.285 1.875 55.13C1.875 57.035 2.79 58.16 4.35 58.16C5.85 58.16 6.75 57.02 6.75 55.115C6.75 53.27 5.82 52.1 4.32 52.1ZM10.8483 59H9.57328V51.26H15.9933V59H14.7183V52.385H10.8483V59ZM25.2882 51.26H26.5632V59H25.2882V51.26ZM24.0582 56.585C24.0582 58.04 23.1132 59 21.5982 59H17.8632V51.26H19.1382V54.215H21.5382C23.0532 54.215 24.0582 55.115 24.0582 56.585ZM21.1332 55.31H19.1382V57.875H21.1332C22.1832 57.875 22.7382 57.41 22.7382 56.585C22.7382 55.76 22.1982 55.31 21.1332 55.31ZM34.3948 52.385H31.6198V59H30.3448V52.385H27.5698V51.26H34.3948V52.385ZM36.6881 59H35.4131V51.26H36.6881V54.335H40.5581V51.26H41.8331V59H40.5581V55.46H36.6881V59ZM51.1281 51.26H52.4031V59H51.1281V51.26ZM49.8981 56.585C49.8981 58.04 48.9531 59 47.4381 59H43.7031V51.26H44.9781V54.215H47.3781C48.8931 54.215 49.8981 55.115 49.8981 56.585ZM46.9731 55.31H44.9781V57.875H46.9731C48.0231 57.875 48.5781 57.41 48.5781 56.585C48.5781 55.76 48.0381 55.31 46.9731 55.31ZM60.6696 51.26L57.9696 54.83L60.9846 59H59.3496L57.1746 55.82L55.0296 59H53.4846L56.3946 54.92L53.7096 51.26H55.3296L57.2046 53.915L59.1246 51.26H60.6696ZM7.62 74.18C7.395 76.025 6.165 77.225 4.245 77.225C1.845 77.225 0.57 75.59 0.57 73.235C0.57 70.655 2.01 69.035 4.29 69.035C6.18 69.035 7.365 70.025 7.575 71.78H6.255C6.03 70.685 5.355 70.1 4.305 70.1C2.835 70.1 1.905 71.27 1.905 73.13C1.905 75.02 2.775 76.16 4.215 76.16C5.37 76.16 6.135 75.455 6.33 74.18H7.62ZM12.4066 69.035C14.7466 69.035 16.1116 70.52 16.1116 73.085C16.1116 75.71 14.7466 77.24 12.3916 77.24C10.0216 77.24 8.61164 75.71 8.61164 73.16C8.61164 70.61 10.0666 69.035 12.4066 69.035ZM12.3766 70.1C10.8766 70.1 9.93164 71.285 9.93164 73.13C9.93164 75.035 10.8466 76.16 12.4066 76.16C13.9066 76.16 14.8066 75.02 14.8066 73.115C14.8066 71.27 13.8766 70.1 12.3766 70.1ZM23.2913 70.385H20.5163V77H19.2413V70.385H16.4663V69.26H23.2913V70.385ZM25.5096 69.26V70.355C26.1096 69.395 26.9796 69.02 28.1196 69.02C30.2796 69.02 31.6446 70.58 31.6446 73.085C31.6446 75.59 30.2946 77.195 28.1796 77.195C27.0396 77.195 26.2446 76.82 25.5846 75.92V79.985H24.3096V69.26H25.5096ZM27.9246 70.085C26.4396 70.085 25.5396 71.225 25.5396 73.1C25.5396 74.975 26.4696 76.115 27.9696 76.115C29.4246 76.115 30.3246 74.96 30.3246 73.1C30.3246 71.225 29.4246 70.085 27.9246 70.085ZM39.4304 69.26L36.1154 77.99C35.6954 79.085 35.2604 80.12 33.8804 80.12C33.5504 80.12 33.2504 80.06 32.9354 79.985V78.845C33.3404 78.965 33.5354 79.01 33.7604 79.01C34.1804 79.01 34.5104 78.725 34.6604 78.365L35.2604 76.955L32.1854 69.26H33.6254L35.9204 75.425L38.0954 69.26H39.4304ZM47.7618 79.46H46.5468V77H40.6368V79.46H39.4218V75.875H40.2618C40.7118 75.02 41.2368 72.86 41.2368 70.91V69.26H46.7568V75.875H47.7618V79.46ZM45.4818 75.875V70.385H42.4818V71.03C42.4818 72.965 42.0018 75.05 41.5818 75.875H45.4818ZM50.15 77H48.875V69.26H50.15V72.335H54.02V69.26H55.295V77H54.02V73.46H50.15V77ZM58.845 77H57.21V69.26H58.485V75.575H58.515L61.995 69.26H63.63V77H62.355V70.685H62.325L58.845 77ZM72.475 77H70.855L68.035 73.19L66.82 74.375V77H65.545V69.26H66.82V72.95L70.36 69.26H72.07L68.95 72.305L72.475 77ZM76.7133 69.035C79.0533 69.035 80.4183 70.52 80.4183 73.085C80.4183 75.71 79.0533 77.24 76.6983 77.24C74.3283 77.24 72.9183 75.71 72.9183 73.16C72.9183 70.61 74.3733 69.035 76.7133 69.035ZM76.6833 70.1C75.1833 70.1 74.2383 71.285 74.2383 73.13C74.2383 75.035 75.1533 76.16 76.7133 76.16C78.2133 76.16 79.1133 75.02 79.1133 73.115C79.1133 71.27 78.1833 70.1 76.6833 70.1ZM81.9066 77V69.26H85.4916C86.8416 69.26 88.1466 69.56 88.1466 71.135C88.1466 71.96 87.7266 72.47 87.0066 72.8V72.815C87.9066 72.995 88.4766 73.685 88.4766 74.72C88.4766 76.04 87.5016 77 86.1216 77H81.9066ZM85.3566 72.38C86.4516 72.38 86.8266 72.005 86.8266 71.345C86.8266 70.7 86.4816 70.355 85.3566 70.355H83.1516V72.38H85.3566ZM83.1516 73.46V75.905H85.8816C86.6916 75.905 87.1566 75.35 87.1566 74.615C87.1566 73.91 86.7066 73.46 85.6566 73.46H83.1516Z" fill="#44474F"/>
</svg>
