<svg width="40" height="46" viewBox="0 0 40 46" fill="none" xmlns="http://www.w3.org/2000/svg">
<rect x="9.8" y="3.3" width="20.4" height="20.4" rx="7.2" stroke="#16191E" stroke-width="1.6"/>
<path d="M17.1089 13.9468C16.3421 13.18 15.9113 12.14 15.9113 11.0556C15.9113 9.97112 16.3421 8.93109 17.1089 8.16428C17.8758 7.39746 18.9158 6.96667 20.0002 6.96667C21.0847 6.96667 22.1247 7.39746 22.8915 8.16428C23.6583 8.93109 24.0891 9.97112 24.0891 11.0556C24.0891 12.14 23.6583 13.18 22.8915 13.9468C22.1247 14.7137 21.0847 15.1444 20.0002 15.1444C18.9158 15.1444 17.8758 14.7137 17.1089 13.9468Z" stroke="#16191E" stroke-width="1.6"/>
<path d="M27.3332 22.0556C27.3332 18.3055 24.0499 15.9444 19.9998 15.9444C15.9497 15.9444 12.6665 18.3055 12.6665 22.0556" stroke="#16191E" stroke-width="1.6"/>
<path d="M1.27495 35.532H5.53095C7.18295 35.532 8.70895 36.19 8.70895 38.024C8.70895 39.004 8.13495 39.844 7.23895 40.166C8.47095 40.446 9.15695 41.37 9.15695 42.686C9.15695 44.982 7.28095 45.5 5.37695 45.5H1.27495V35.532ZM2.56295 36.652V39.802H4.92895C6.04895 39.802 7.39295 39.718 7.39295 38.22C7.39295 36.722 6.23095 36.652 5.05495 36.652H2.56295ZM2.56295 40.838V44.394H5.19495C6.52495 44.394 7.82695 44.31 7.82695 42.56C7.82695 40.824 6.30095 40.838 4.97095 40.838H2.56295ZM13.8129 38.066C15.9969 38.066 17.2709 39.452 17.2709 41.846C17.2709 44.296 15.9969 45.724 13.7989 45.724C11.5869 45.724 10.2709 44.296 10.2709 41.916C10.2709 39.536 11.6289 38.066 13.8129 38.066ZM13.7849 39.06C12.3849 39.06 11.5029 40.166 11.5029 41.888C11.5029 43.666 12.3569 44.716 13.8129 44.716C15.2129 44.716 16.0529 43.652 16.0529 41.874C16.0529 40.152 15.1849 39.06 13.7849 39.06ZM23.798 35.532C23.616 36.652 22.916 37.464 21.698 37.464C20.536 37.464 19.71 36.652 19.57 35.532H20.284C20.48 36.204 20.97 36.624 21.684 36.624C22.412 36.624 22.86 36.204 23.084 35.532H23.798ZM20.214 45.5H18.688V38.276H19.878V44.17H19.906L23.154 38.276H24.68V45.5H23.49V39.606H23.462L20.214 45.5ZM31.9973 39.326H29.4073V45.5H28.2173V39.326H25.6273V38.276H31.9973V39.326ZM34.4738 45.5H32.9478V38.276H34.1378V44.17H34.1658L37.4138 38.276H38.9398V45.5H37.7498V39.606H37.7218L34.4738 45.5Z" fill="#6B7076"/>
</svg>
