<svg width="59" height="16" viewBox="0 0 59 16" fill="none" xmlns="http://www.w3.org/2000/svg">
<path fill-rule="evenodd" clip-rule="evenodd" d="M14.6815 15.5269V6.58353H14.2865L11.453 15.5269H8.08815H8.07843L5.25465 6.58353H4.86233V15.5269H0.0302734V0.473694H4.86947C5.47248 0.47086 6.06129 0.662216 6.54742 1.01942C7.03355 1.37654 7.39128 1.88064 7.56926 2.45718L9.55809 9.41442H9.97689L11.9692 2.45718C12.1481 1.87957 12.5076 1.37485 12.9956 1.01765C13.4835 0.660446 14.0732 0.469709 14.6779 0.473694H19.5171V15.5269H14.6779H14.6815Z" fill="black"/>
<path fill-rule="evenodd" clip-rule="evenodd" d="M33.1911 15.5269V6.66228H32.8095L29.5093 14.0888C29.3154 14.5179 29.0019 14.8819 28.6061 15.137C28.2094 15.392 27.749 15.5274 27.2779 15.5269H23.0488V0.473636H27.919V9.33821H28.3183L31.6601 1.90015C31.669 1.88155 31.677 1.86207 31.6859 1.84348V1.83817C31.8878 1.42801 32.2012 1.08276 32.5899 0.841551C32.9778 0.600346 33.4267 0.472927 33.8836 0.473636H38.1127V15.5269H33.1911Z" fill="black"/>
<path fill-rule="evenodd" clip-rule="evenodd" d="M52.3918 11.1066H46.5901V15.527H41.665V7.55762H58.0297C57.5418 8.63684 56.7466 9.54871 55.7443 10.1797C54.7419 10.8107 53.5757 11.1331 52.3918 11.1066Z" fill="black"/>
<path opacity="0.55" fill-rule="evenodd" clip-rule="evenodd" d="M58.3398 5.78653H48.9793C44.9141 5.78653 41.5342 3.33197 40.8223 0.473633H52.8303C55.9392 0.473633 58.4584 2.62802 58.4584 4.93205C58.4584 5.22098 58.4186 5.50849 58.3398 5.78653Z" fill="black"/>
</svg>
