<svg width="56" height="49" viewBox="0 0 56 49" fill="none" xmlns="http://www.w3.org/2000/svg">
<path d="M14.5 3.5H18.0617C18.9082 3.5 19.663 4.03286 19.9464 4.83047L20.7656 7.13636M20.7656 7.13636L24.5402 17.7612C24.8891 18.7433 25.9337 19.2928 26.9407 19.024L40.016 15.5326C40.8912 15.2989 41.5 14.5062 41.5 13.6003V9.13636C41.5 8.03179 40.6046 7.13636 39.5 7.13636H20.7656Z" stroke="#16191E" stroke-width="1.6"/>
<path d="M20.3667 22.5C20.3667 23.6782 21.3218 24.6333 22.5 24.6333C23.6782 24.6333 24.6333 23.6782 24.6333 22.5C24.6333 21.3218 23.6782 20.3667 22.5 20.3667C21.3218 20.3667 20.3667 21.3218 20.3667 22.5ZM21.5 22.9H22.5V22.1H21.5V22.9Z" fill="#16191E"/>
<path d="M33.3667 22.5C33.3667 23.6782 34.3218 24.6333 35.5 24.6333C36.6782 24.6333 37.6333 23.6782 37.6333 22.5C37.6333 21.3218 36.6782 20.3667 35.5 20.3667C34.3218 20.3667 33.3667 21.3218 33.3667 22.5ZM34.5 22.9H35.5V22.1H34.5V22.9Z" fill="#16191E"/>
<path d="M9.32105 35.532L5.12105 39.536L9.48905 45.5H7.80905L4.19705 40.432L2.54505 42V45.5H1.22905V35.532H2.54505V40.474L7.59905 35.532H9.32105ZM13.5209 38.066C15.7049 38.066 16.9789 39.452 16.9789 41.846C16.9789 44.296 15.7049 45.724 13.5069 45.724C11.2949 45.724 9.97894 44.296 9.97894 41.916C9.97894 39.536 11.3369 38.066 13.5209 38.066ZM13.4929 39.06C12.0929 39.06 11.2109 40.166 11.2109 41.888C11.2109 43.666 12.0649 44.716 13.5209 44.716C14.9209 44.716 15.7609 43.652 15.7609 41.874C15.7609 40.152 14.8929 39.06 13.4929 39.06ZM19.516 38.276V39.298C20.076 38.402 20.888 38.052 21.952 38.052C23.968 38.052 25.242 39.508 25.242 41.846C25.242 44.184 23.982 45.682 22.008 45.682C20.944 45.682 20.202 45.332 19.586 44.492V48.286H18.396V38.276H19.516ZM21.77 39.046C20.384 39.046 19.544 40.11 19.544 41.86C19.544 43.61 20.412 44.674 21.812 44.674C23.17 44.674 24.01 43.596 24.01 41.86C24.01 40.11 23.17 39.046 21.77 39.046ZM26.2888 40.362C26.4008 38.584 27.8848 38.066 29.3408 38.066C30.8248 38.066 32.0568 38.668 32.0568 40.012C32.0568 40.838 31.4828 41.412 30.8948 41.538V41.566C31.5668 41.692 32.2948 42.238 32.2948 43.358C32.2948 44.926 30.8248 45.724 29.2988 45.724C27.4088 45.724 26.2468 44.814 26.1628 43.246H27.3668C27.4368 44.282 28.2208 44.758 29.2848 44.758C30.4188 44.758 31.0628 44.128 31.0628 43.386C31.0628 42.658 30.6288 42.21 29.5228 42.21H28.5288V41.244H29.3268C30.1668 41.244 30.8528 40.922 30.8528 40.068C30.8528 39.536 30.3068 39.032 29.3268 39.032C28.4728 39.032 27.5908 39.382 27.4928 40.362H26.2888ZM35.2208 45.5H33.6948V38.276H34.8848V44.17H34.9128L38.1608 38.276H39.6868V45.5H38.4968V39.606H38.4688L35.2208 45.5ZM42.6641 45.5H41.4741V38.276H42.6641V41.146H46.2761V38.276H47.4661V45.5H46.2761V42.196H42.6641V45.5ZM55.6514 44.548V45.472C55.3994 45.57 55.1054 45.612 54.8394 45.612C54.1674 45.612 53.8034 45.234 53.7894 44.548C53.0754 45.346 52.2914 45.696 51.1714 45.696C49.7434 45.696 48.8614 44.912 48.8614 43.652C48.8614 42.364 49.7154 41.608 51.4234 41.398C53.1454 41.188 53.7334 41.23 53.7334 40.25C53.7334 39.48 53.1594 39.06 52.0954 39.06C50.9894 39.06 50.4154 39.466 50.3034 40.53H49.1414C49.1834 38.99 50.3034 38.08 52.1654 38.08C53.1314 38.08 53.9574 38.332 54.4334 38.78C54.9374 39.27 54.9234 40.012 54.9234 40.656C54.9234 41.734 54.8674 42.798 54.8674 43.876C54.8674 44.408 54.9934 44.59 55.3574 44.59C55.4694 44.59 55.5254 44.576 55.6514 44.548ZM53.7334 41.748C53.2854 42.084 52.6694 42.112 52.1374 42.182C51.2694 42.294 50.0934 42.392 50.0934 43.554C50.0934 44.296 50.6394 44.758 51.5354 44.758C52.6554 44.758 53.7334 43.988 53.7334 43.064V41.748Z" fill="#6B7076"/>
</svg>
