<svg width="73" height="49" viewBox="0 0 73 49" fill="none" xmlns="http://www.w3.org/2000/svg">
<path d="M37 8.5C37 8.5 38.4034 3.5 42.8475 3.5C46.3092 3.5 48.5 6.3666 48.5 9.7626C48.5 14.4594 43.9359 17.5694 37 23.5C30.0642 17.5694 25.5 14.4594 25.5 9.7626C25.5 6.3666 27.6908 3.5 31.1525 3.5C35.5966 3.5 37 8.5 37 8.5Z" stroke="#16191E" stroke-width="1.6" stroke-miterlimit="10" stroke-linecap="round" stroke-linejoin="round"/>
<path d="M1.56694 45.5V35.532H2.88294V43.974H2.91094L7.79694 35.532H9.46294V45.5H8.14694V37.03H8.11894L3.21894 45.5H1.56694ZM11.0545 40.362C11.1665 38.584 12.6505 38.066 14.1065 38.066C15.5905 38.066 16.8225 38.668 16.8225 40.012C16.8225 40.838 16.2485 41.412 15.6605 41.538V41.566C16.3325 41.692 17.0605 42.238 17.0605 43.358C17.0605 44.926 15.5905 45.724 14.0645 45.724C12.1745 45.724 11.0125 44.814 10.9285 43.246H12.1325C12.2025 44.282 12.9865 44.758 14.0505 44.758C15.1845 44.758 15.8285 44.128 15.8285 43.386C15.8285 42.658 15.3945 42.21 14.2885 42.21H13.2945V41.244H14.0925C14.9325 41.244 15.6185 40.922 15.6185 40.068C15.6185 39.536 15.0725 39.032 14.0925 39.032C13.2385 39.032 12.3565 39.382 12.2585 40.362H11.0545ZM19.1325 37.268C19.7765 36.274 20.6165 35.84 21.9885 35.742C22.8985 35.672 23.4585 35.658 23.6545 35.294H24.8445C24.5785 36.778 23.0805 36.75 21.8205 36.848C20.2385 36.96 19.4265 38.178 19.2165 39.886H19.2585C19.6645 38.934 20.5885 38.248 21.7925 38.248C23.8225 38.248 25.0825 39.592 25.0825 41.944C25.0825 44.352 23.8365 45.738 21.6945 45.738C20.0005 45.738 18.6425 44.716 18.3485 42.728C18.2925 42.336 18.2645 41.888 18.2645 41.412C18.2645 40.026 18.4325 38.346 19.1325 37.268ZM19.4825 41.986C19.4825 43.61 20.3085 44.73 21.7085 44.73C23.0385 44.73 23.8645 43.722 23.8645 41.972C23.8645 40.278 23.0245 39.242 21.6805 39.242C20.3365 39.242 19.4825 40.292 19.4825 41.986ZM27.6195 38.276V39.298C28.1795 38.402 28.9915 38.052 30.0555 38.052C32.0715 38.052 33.3455 39.508 33.3455 41.846C33.3455 44.184 32.0855 45.682 30.1115 45.682C29.0475 45.682 28.3055 45.332 27.6895 44.492V48.286H26.4995V38.276H27.6195ZM29.8735 39.046C28.4875 39.046 27.6475 40.11 27.6475 41.86C27.6475 43.61 28.5155 44.674 29.9155 44.674C31.2735 44.674 32.1135 43.596 32.1135 41.86C32.1135 40.11 31.2735 39.046 29.8735 39.046ZM41.1963 44.548V45.472C40.9443 45.57 40.6503 45.612 40.3843 45.612C39.7123 45.612 39.3483 45.234 39.3343 44.548C38.6203 45.346 37.8363 45.696 36.7163 45.696C35.2883 45.696 34.4063 44.912 34.4063 43.652C34.4063 42.364 35.2603 41.608 36.9683 41.398C38.6903 41.188 39.2783 41.23 39.2783 40.25C39.2783 39.48 38.7043 39.06 37.6403 39.06C36.5343 39.06 35.9603 39.466 35.8483 40.53H34.6863C34.7283 38.99 35.8483 38.08 37.7103 38.08C38.6763 38.08 39.5023 38.332 39.9783 38.78C40.4823 39.27 40.4683 40.012 40.4683 40.656C40.4683 41.734 40.4123 42.798 40.4123 43.876C40.4123 44.408 40.5383 44.59 40.9023 44.59C41.0143 44.59 41.0703 44.576 41.1963 44.548ZM39.2783 41.748C38.8303 42.084 38.2143 42.112 37.6823 42.182C36.8143 42.294 35.6383 42.392 35.6383 43.554C35.6383 44.296 36.1843 44.758 37.0803 44.758C38.2003 44.758 39.2783 43.988 39.2783 43.064V41.748ZM43.5079 45.5H42.3179V38.276H43.5079V41.146H47.1199V38.276H48.3099V45.5H47.1199V42.196H43.5079V45.5ZM51.2872 45.5H50.0972V38.276H51.2872V41.146H54.8992V38.276H56.0892V45.5H54.8992V42.196H51.2872V45.5ZM61.0405 38.066C63.2245 38.066 64.4985 39.452 64.4985 41.846C64.4985 44.296 63.2245 45.724 61.0265 45.724C58.8145 45.724 57.4985 44.296 57.4985 41.916C57.4985 39.536 58.8565 38.066 61.0405 38.066ZM61.0125 39.06C59.6125 39.06 58.7305 40.166 58.7305 41.888C58.7305 43.666 59.5845 44.716 61.0405 44.716C62.4405 44.716 63.2805 43.652 63.2805 41.874C63.2805 40.152 62.4125 39.06 61.0125 39.06ZM72.0895 43.218C71.7255 44.884 70.6475 45.738 68.9395 45.738C66.8115 45.738 65.5375 44.338 65.5375 41.986C65.5375 39.648 66.8955 38.066 68.8975 38.066C71.2775 38.066 72.1735 39.956 72.1735 42.042V42.21H66.7415L66.7275 42.294C66.7275 43.834 67.5815 44.758 68.9815 44.758C70.0175 44.758 70.5915 44.31 70.9275 43.218H72.0895ZM70.9415 41.244C70.8295 39.872 70.0595 39.046 68.8695 39.046C67.7075 39.046 66.8955 39.886 66.7415 41.244H70.9415Z" fill="#6B7076"/>
</svg>
