<svg width="36" height="24" viewBox="0 0 36 24" fill="none" xmlns="http://www.w3.org/2000/svg">
<path fill-rule="evenodd" clip-rule="evenodd" d="M13.872 12.0002C13.872 13.7165 14.2722 15.409 15.0408 16.9434C15.8094 18.478 16.9251 19.8121 18.2994 20.84C16.6559 22.0783 14.6999 22.8341 12.6509 23.0224C10.6019 23.2106 8.54135 22.824 6.69954 21.9059C4.85774 20.9877 3.30902 19.5744 2.22608 17.8247C1.14313 16.0749 0.569336 14.0579 0.569336 12.0002C0.569336 9.94252 1.14313 7.92557 2.22608 6.17586C3.30902 4.42605 4.85774 3.01273 6.69954 2.09457C8.54135 1.1765 10.6019 0.78981 12.6509 0.978063C14.6999 1.16641 16.6559 1.92208 18.2994 3.16043C16.9251 4.1883 15.8094 5.52255 15.0408 7.057C14.2722 8.59146 13.872 10.2841 13.872 12.0002Z" fill="black"/>
<path opacity="0.3" fill-rule="evenodd" clip-rule="evenodd" d="M24.9409 23.0688C22.5439 23.069 20.2116 22.2864 18.2998 20.8401C19.6741 19.8123 20.7898 18.4781 21.5584 16.9436C22.327 15.4091 22.7272 13.7165 22.7272 12.0003C22.7272 10.2841 22.327 8.59152 21.5584 7.05697C20.7898 5.52252 19.6741 4.18836 18.2998 3.16049C19.7015 2.10721 21.3343 1.40228 23.0619 1.10378C24.7895 0.805371 26.564 0.921902 28.2385 1.44389C29.912 1.96589 31.4386 2.87829 32.6907 4.10593C33.9428 5.33356 34.8849 6.84127 35.4401 8.50474C35.9944 10.1682 36.1458 11.9397 35.882 13.6732C35.6172 15.4067 34.9451 17.0526 33.9197 18.475C32.8944 19.8976 31.5449 21.0559 29.9838 21.8546C28.4227 22.6534 26.6942 23.0695 24.9409 23.0688Z" fill="black"/>
<path opacity="0.65" fill-rule="evenodd" clip-rule="evenodd" d="M13.8721 12.0004C13.8721 10.2843 14.2723 8.59167 15.0409 7.05722C15.8095 5.52277 16.9252 4.1886 18.2995 3.16064C19.6738 4.18851 20.7895 5.52267 21.5581 7.05713C22.3267 8.59167 22.7269 10.2843 22.7269 12.0004C22.7269 13.7167 22.3267 15.4093 21.5581 16.9437C20.7895 18.4783 19.6738 19.8124 18.2995 20.8402C16.9252 19.8123 15.8095 18.4782 15.0409 16.9437C14.2723 15.4092 13.8721 13.7167 13.8721 12.0004Z" fill="black"/>
</svg>
