<svg width="48" height="16" viewBox="0 0 48 16" fill="none" xmlns="http://www.w3.org/2000/svg">
<path fill-rule="evenodd" clip-rule="evenodd" d="M43.9471 15.5681C43.9471 15.5681 43.6009 13.4553 43.4849 12.9258H38.4792C38.3411 13.3402 37.6495 15.5681 37.6495 15.5681H33.5657L39.3567 1.75894C39.5005 1.34852 39.78 0.999369 40.1493 0.769144C40.5176 0.538918 40.9542 0.441431 41.3863 0.4927H44.4084L47.5687 15.5681H43.9471ZM41.9397 5.8543L41.6625 4.56504C41.4784 5.1406 41.1313 6.03848 41.1552 6.01546C41.1552 6.01546 39.9093 9.35196 39.61 10.2259H42.8394C42.68 9.46442 41.9397 5.8543 41.9397 5.8543ZM33.5427 3.96822C32.6308 3.55629 31.6365 3.35936 30.6365 3.39265C29.0904 3.39265 28.398 4.0364 28.375 4.68103C28.375 5.39473 29.2064 5.8543 30.5887 6.54055C32.8272 7.5987 33.865 8.9101 33.842 10.635C33.8189 13.7413 31.166 15.7655 27.0591 15.7655C25.5753 15.7705 24.1038 15.4977 22.7203 14.9615L23.2516 11.579L23.7829 11.8322C24.9156 12.389 26.1657 12.665 27.4275 12.6371C28.5583 12.6371 29.7572 12.1767 29.7811 11.1645C29.7811 10.4978 29.2737 10.0134 27.7507 9.27847C26.2746 8.56477 24.3133 7.36848 24.3363 5.20524C24.3593 2.28315 27.0583 0.235024 30.911 0.235024C32.1076 0.228206 33.2957 0.43824 34.4175 0.85486L33.8862 4.12318L33.5427 3.96822ZM16.3802 15.5681L18.825 0.4927H22.7212L20.2772 15.5681H16.3802ZM6.99409 15.5681L3.72754 3.2926C4.25803 3.5601 4.76054 3.87985 5.22755 4.24715C6.64671 5.40669 7.86053 6.7969 8.81819 8.35933L8.88282 8.68431L9.29812 10.7555L13.1269 0.4927H17.2568L11.1204 15.5681H6.99498H6.99409Z" fill="black"/>
<path opacity="0.35" fill-rule="evenodd" clip-rule="evenodd" d="M5.22436 4.24754C4.75762 3.87989 4.25502 3.56014 3.72435 3.29298L3.50209 2.45797C2.39913 1.82547 1.22303 1.33014 0 0.982764V0.516113H5.98941C6.34777 0.516999 6.69505 0.640431 6.97354 0.865964C7.25202 1.0915 7.44506 1.40549 7.52041 1.75578L8.81676 8.35618C7.85823 6.79481 6.64379 5.40593 5.22436 4.24754Z" fill="black"/>
</svg>
